<svg width="16" height="12" viewBox="0 0 16 12" fill="none" xmlns="http://www.w3.org/2000/svg">
<path d="M1.5 0.75C1.08579 0.75 0.75 1.08579 0.75 1.5V10.5C0.75 10.9142 1.08579 11.25 1.5 11.25H14.25C14.6642 11.25 15 10.9142 15 10.5V1.5C15 1.08579 14.6642 0.75 14.25 0.75H1.5Z" stroke="#2079C7" stroke-width="1.5" stroke-linejoin="round"/>
<circle cx="4.1091" cy="4.40606" r="1.40606" fill="#2079C7"/>
<path d="M2 7.66364C2 6.83521 2.67157 6.16364 3.5 6.16364H4.71819C5.54661 6.16364 6.21819 6.83521 6.21819 7.66364V8.27273H2V7.66364Z" fill="#2079C7"/>
<rect x="7" y="4" width="6" height="1.5" fill="#2079C7"/>
<rect x="7" y="6.5" width="6" height="1.5" fill="#2079C7"/>
</svg>
