<svg xmlns="http://www.w3.org/2000/svg" viewBox="0 0 96 96" fill="#FFF" stroke-miterlimit="10" stroke-width="2">
	<path stroke="#979593" d="M85,76H11c-1.1046,0-2-0.8954-2-2V22 c0-1.1046,0.8954-2,2-2h74c1.1046,0,2,0.8954,2,2v52C87,75.1046,86.1046,76,85,76z"/>
	<circle fill="#C8C6C4" cx="14.5" cy="25.5" r="1.5"/>
	<circle fill="#C8C6C4" cx="19.5" cy="25.5" r="1.5"/>
	<circle fill="#C8C6C4" cx="24.5" cy="25.5" r="1.5"/>
	<path stroke="#979593" d="M9 31L87 31"/>
	<path fill="#EDEBE9" d="M30,75H11c-0.5523,0-1-0.4477-1-1V32h20V75z"/>
	<path fill="#C8C6C4" d="M24 47h-8c-.5523 0-1-.4477-1-1l0 0c0-.5523.4477-1 1-1h8c.5523 0 1 .4477 1 1l0 0C25 46.5523 24.5523 47 24 47zM24 41h-8c-.5523 0-1-.4477-1-1l0 0c0-.5523.4477-1 1-1h8c.5523 0 1 .4477 1 1l0 0C25 40.5523 24.5523 41 24 41zM24 53h-8c-.5523 0-1-.4477-1-1l0 0c0-.5523.4477-1 1-1h8c.5523 0 1 .4477 1 1l0 0C25 52.5523 24.5523 53 24 53z"/>
	<path fill="#C8C6C4" d="M54 47H37c-.5523 0-1-.4477-1-1l0 0c0-.5523.4477-1 1-1h17c.5523 0 1 .4477 1 1l0 0C55 46.5523 54.5523 47 54 47zM54 41H37c-.5523 0-1-.4477-1-1l0 0c0-.5523.4477-1 1-1h17c.5523 0 1 .4477 1 1l0 0C55 40.5523 54.5523 41 54 41zM54 53H37c-.5523 0-1-.4477-1-1l0 0c0-.5523.4477-1 1-1h17c.5523 0 1 .4477 1 1l0 0C55 52.5523 54.5523 53 54 53zM54 59H37c-.5523 0-1-.4477-1-1l0 0c0-.5523.4477-1 1-1h17c.5523 0 1 .4477 1 1l0 0C55 58.5523 54.5523 59 54 59zM54 65H37c-.5523 0-1-.4477-1-1l0 0c0-.5523.4477-1 1-1h17c.5523 0 1 .4477 1 1l0 0C55 64.5523 54.5523 65 54 65z"/>
	<path fill="#69AFE5" d="M79,65H62c-1.1046,0-2-0.8954-2-2V41c0-1.1046,0.8954-2,2-2h17c1.1046,0,2,0.8954,2,2v22 C81,64.1046,80.1046,65,79,65z"/>
</svg>